<svg width="14" height="14" viewBox="0 0 14 14" fill="none" xmlns="http://www.w3.org/2000/svg">
<g clip-path="url(#clip0)">
<path d="M8.28263 7.01146L13.7339 1.55997C14.0887 1.20537 14.0887 0.632034 13.7339 0.277438C13.3793 -0.0771594 12.806 -0.0771594 12.4514 0.277438L6.99993 5.72893L1.5486 0.277438C1.19384 -0.0771594 0.62067 -0.0771594 0.266072 0.277438C-0.0886908 0.632034 -0.0886908 1.20537 0.266072 1.55997L5.71741 7.01146L0.266072 12.4629C-0.0886908 12.8175 -0.0886908 13.3909 0.266072 13.7455C0.44279 13.9224 0.675147 14.0112 0.90734 14.0112C1.13953 14.0112 1.37172 13.9224 1.5486 13.7455L6.99993 8.29398L12.4514 13.7455C12.6283 13.9224 12.8605 14.0112 13.0927 14.0112C13.3249 14.0112 13.5571 13.9224 13.7339 13.7455C14.0887 13.3909 14.0887 12.8175 13.7339 12.4629L8.28263 7.01146Z" fill="white"/>
</g>
<defs>
<clipPath id="clip0">
<rect width="14" height="14" fill="white"/>
</clipPath>
</defs>
</svg>
