<svg width="12" height="12" viewBox="0 0 12 12" fill="none" xmlns="http://www.w3.org/2000/svg">
<path d="M5.00089 0.724365H7.00644V1.06183H7.73071V0.677124C7.7308 0.303772 7.42722 0 7.05405 0H4.95328C4.58011 0 4.27652 0.303772 4.27652 0.677124V1.06183H5.00089V0.724365Z" fill="white"/>
<path d="M9.40337 3.93164H2.60395C2.41764 3.93164 2.27097 4.09058 2.28599 4.27634L2.85444 11.3054C2.88611 11.6978 3.21341 12 3.60663 12H8.4006C8.79382 12 9.12112 11.6978 9.15279 11.3053L9.72124 4.27634C9.73635 4.09058 9.58968 3.93164 9.40337 3.93164V3.93164ZM4.25034 11.2503C4.24274 11.2507 4.23514 11.251 4.22763 11.251C4.03775 11.251 3.87836 11.1031 3.86655 10.9111L3.51032 5.14059C3.49805 4.94092 3.64994 4.76907 3.84952 4.75681C4.04846 4.74472 4.22104 4.89624 4.23331 5.09601L4.58945 10.8665C4.60181 11.0662 4.44992 11.2379 4.25034 11.2503V11.2503ZM6.36987 10.8888C6.36987 11.0888 6.20773 11.2509 6.00769 11.2509C5.80765 11.2509 5.64551 11.0888 5.64551 10.8888V5.11826C5.64551 4.91821 5.80765 4.75607 6.00769 4.75607C6.20764 4.75607 6.36987 4.91821 6.36987 5.11826V10.8888ZM8.497 5.13959L8.15688 10.9101C8.14562 11.1025 7.98596 11.2509 7.79571 11.2509C7.78857 11.2509 7.78134 11.2507 7.7741 11.2504C7.57443 11.2386 7.42208 11.0672 7.43389 10.8675L7.77392 5.09692C7.78564 4.89725 7.95648 4.7449 8.1567 4.75671C8.35638 4.76843 8.50872 4.93991 8.497 5.13959V5.13959Z" fill="white"/>
<path d="M10.6558 2.81396L10.418 2.10095C10.3553 1.91299 10.1793 1.78619 9.98108 1.78619H2.02616C1.82804 1.78619 1.65198 1.91299 1.58936 2.10095L1.3515 2.81396C1.30564 2.95148 1.36533 3.09174 1.47675 3.16168C1.52216 3.19016 1.5759 3.20728 1.63495 3.20728H10.3724C10.4314 3.20728 10.4853 3.19016 10.5306 3.16159C10.642 3.09164 10.7017 2.95139 10.6558 2.81396Z" fill="white"/>
</svg>
