<svg width="24" height="24" viewBox="0 0 24 24" fill="none" xmlns="http://www.w3.org/2000/svg">
<g clip-path="url(#clip0)">
<path d="M12 16C11.795 16 11.599 15.916 11.458 15.768L6.20802 10.268C5.75302 9.792 6.09102 9 6.75002 9H9.50002V3.25C9.50002 2.561 10.061 2 10.75 2H13.25C13.939 2 14.5 2.561 14.5 3.25V9H17.25C17.909 9 18.247 9.792 17.792 10.268L12.542 15.768C12.401 15.916 12.205 16 12 16V16Z" fill="white"/>
<path d="M22.25 22H1.75C0.785 22 0 21.215 0 20.25V19.75C0 18.785 0.785 18 1.75 18H22.25C23.215 18 24 18.785 24 19.75V20.25C24 21.215 23.215 22 22.25 22Z" fill="white"/>
</g>
<defs>
<clipPath id="clip0">
<rect width="24" height="24" fill="white"/>
</clipPath>
</defs>
</svg>
