<svg width="20" height="25" viewBox="0 0 20 25" fill="none" xmlns="http://www.w3.org/2000/svg">
<g clip-path="url(#clip0)">
<path d="M15.71 1.41548C15.0603 0.502685 14.1596 0 13.1739 0C12.0737 0 11.12 0.650292 10.4159 1.88051C10.3631 1.97275 10.3137 2.06499 10.2674 2.15629C10.2211 2.06494 10.1718 1.97275 10.119 1.88051C9.41481 0.650292 8.46111 0 7.36088 0C6.37518 0 5.47448 0.502685 4.82475 1.41543C4.20819 2.28164 3.86858 3.43964 3.86858 4.67611C3.86858 6.01981 4.28573 7.2597 5.18124 8.57826C5.9626 9.72864 7.08338 10.9111 8.38119 12.2803C8.86075 12.7864 9.35669 13.3095 9.88368 13.8805C9.99376 13.9997 10.1306 14.0594 10.2674 14.0594C10.4041 14.0594 10.5409 13.9997 10.651 13.8805C11.1779 13.3097 11.6738 12.7865 12.1534 12.2806C12.9868 11.4012 13.7066 10.6418 14.3313 9.90516C15.544 8.47489 16.6662 6.8515 16.6662 4.67616C16.6662 3.43964 16.3266 2.28169 15.71 1.41548ZM13.5273 8.83988C12.9262 9.54871 12.2179 10.296 11.3977 11.1614C11.0328 11.5463 10.6586 11.9411 10.2674 12.3604C9.8761 11.9411 9.50177 11.5462 9.13689 11.1612C6.58225 8.46595 5.04022 6.8391 5.04022 4.67616C5.04014 2.84526 6.0378 1.4646 7.36084 1.4646C8.06767 1.4646 8.6688 1.88051 9.14751 2.70078C9.5404 3.37392 9.70169 4.07177 9.70278 4.07646C9.77309 4.39369 10.004 4.61332 10.2674 4.61332C10.5307 4.61332 10.7616 4.39369 10.8319 4.07646C10.8377 4.05033 11.4307 1.4646 13.1739 1.4646C14.4969 1.4646 15.4946 2.84531 15.4946 4.67616C15.4946 6.00277 14.943 7.17015 13.5273 8.83988Z" fill="white"/>
<path d="M18.2403 14.7484C17.7544 14.7484 17.2856 15.0034 16.9542 15.448L15.2325 17.7585C15.0099 16.8641 14.3416 16.2129 13.5539 16.2129H10.8477C10.4688 16.2129 10.1034 16.0406 9.819 15.7277C8.2892 14.0449 5.98975 14.0301 4.44542 15.6812C4.12694 15.1175 3.60218 14.7484 3.00937 14.7484H0.588046C0.264532 14.7484 0.00222778 15.0762 0.00222778 15.4807V24.2678C0.00222778 24.6722 0.264493 25 0.588046 25H3.00937C3.53546 25 4.00796 24.7092 4.3303 24.2498L4.67721 24.3717C5.86385 24.7886 7.09049 25 8.3231 25H13.5539C14.8377 25 16.0641 24.2335 16.8344 22.9497L19.6468 18.2623C19.6469 18.2622 19.6469 18.2621 19.647 18.262C19.8765 17.8795 19.9978 17.4241 19.9978 16.9451C19.9978 15.7338 19.2094 14.7484 18.2403 14.7484ZM3.59519 22.8032C3.59519 23.2069 3.33241 23.5355 3.00937 23.5355H1.17383V16.2129H3.00937C3.33237 16.2129 3.59519 16.5413 3.59519 16.9451V22.8032ZM18.7096 17.3835C18.7096 17.3835 18.7096 17.3835 18.7095 17.3836L15.8971 22.071C15.3469 22.988 14.4709 23.5355 13.5539 23.5355H8.32322C7.19779 23.5355 6.0778 23.3425 4.99436 22.9618L4.76526 22.8813C4.766 22.8553 4.76686 22.8294 4.76686 22.8032V17.2761L5.1751 16.8271C6.27823 15.6137 7.94193 15.6136 9.04513 16.8271C9.54361 17.3754 10.1837 17.6773 10.8477 17.6773H13.554C13.877 17.6773 14.1398 18.0058 14.1398 18.4096C14.1398 18.8133 13.877 19.1419 13.554 19.1419H9.39052C9.06701 19.1419 8.8047 19.4697 8.8047 19.8741C8.8047 20.2786 9.06697 20.6064 9.39052 20.6064H13.9465C14.4325 20.6064 14.9012 20.3515 15.2325 19.9069L17.8115 16.4462C17.9237 16.2957 18.076 16.2129 18.2403 16.2129C18.5633 16.2129 18.8262 16.5413 18.8262 16.9451C18.8262 17.1048 18.7858 17.2564 18.7096 17.3835Z" fill="white"/>
</g>
<defs>
<clipPath id="clip0">
<rect width="20" height="25" fill="white"/>
</clipPath>
</defs>
</svg>
