<svg width="24" height="24
" viewBox="0 0 40 40" fill="none" xmlns="http://www.w3.org/2000/svg">
<path d="M9.16661 11.6667H27.5C27.9606 11.6667 28.3333 11.294 28.3333 10.8334C28.3333 10.3727 27.9606 10 27.5 10H9.16661C8.70599 10 8.33325 10.3727 8.33325 10.8334C8.33333 11.2941 8.70606 11.6667 9.16661 11.6667Z" fill="white"/>
<path d="M19.1666 20H9.16661C8.70599 20 8.33325 20.3727 8.33325 20.8334C8.33325 21.294 8.70599 21.6667 9.16661 21.6667H19.1666C19.6272 21.6667 20 21.294 20 20.8334C20 20.3727 19.6272 20 19.1666 20Z" fill="white"/>
<path d="M36.8099 5.00011C36.7616 5.00011 36.7148 5.01222 36.6667 5.01448V5.00011C36.6667 3.16175 35.1709 1.66675 33.3334 1.66675H3.33336C1.49578 1.66675 0 3.16175 0 5.00011V37.5001C0 37.8371 0.203438 38.1414 0.514297 38.27C0.616875 38.3131 0.725859 38.3335 0.833281 38.3335C1.04977 38.3335 1.26297 38.2489 1.4225 38.0893L9.51172 30.0001H33.3334C35.1709 30.0001 36.6667 28.5052 36.6667 26.6667V12.8447L39.0658 10.446C39.0658 10.446 39.0658 10.446 39.0658 10.4453C39.6598 9.8512 40 9.02925 40 8.19019C40 6.43081 38.5694 5.00011 36.8099 5.00011ZM35 26.6667C35 27.5855 34.2529 28.3334 33.3334 28.3334H9.16664C8.94531 28.3334 8.73367 28.4213 8.57742 28.5775L1.66664 35.4884V5.00011C1.66664 4.08136 2.41375 3.33347 3.33328 3.33347H33.3333C34.253 3.33347 35 4.08136 35 5.00011V5.56933C34.8418 5.67808 34.6905 5.79769 34.5541 5.93433L25.4869 15.0001H9.16664C8.70602 15.0001 8.33328 15.3728 8.33328 15.8335C8.33328 16.2941 8.70602 16.6668 9.16664 16.6668H24.1498L23.3496 20.67C23.2943 20.9434 23.3805 21.2258 23.5775 21.4227C23.7354 21.5806 23.9486 21.6668 24.1667 21.6668C24.2205 21.6668 24.2758 21.6611 24.3295 21.6506L28.4945 20.8172C28.6573 20.7846 28.8054 20.7057 28.9209 20.5893L35 14.5112V26.6667ZM27.9216 19.2327L25.2295 19.7714L25.7683 17.0761L33.333 9.51144L35.4882 11.6667L27.9216 19.2327ZM37.8873 9.26769L36.6666 10.4884L34.5112 8.333L35.7323 7.1119C36.0155 6.82948 36.4078 6.66675 36.8098 6.66675C37.6497 6.66675 38.3333 7.35034 38.3333 8.19019C38.3334 8.59058 38.1705 8.9837 37.8873 9.26769Z" fill="white"/>
</svg>
