<svg width="24" height="24" viewBox="0 0 40 40" fill="none" xmlns="http://www.w3.org/2000/svg">
<path d="M11.2451 29.9072C12.7014 28.7732 13.6407 27.005 13.6407 25.0208C13.6407 21.6061 10.8624 18.8281 7.44781 18.8281C4.0332 18.8281 1.25519 21.6061 1.25519 25.0208C1.25519 27.005 2.19452 28.7732 3.65051 29.9072C1.59546 31.1298 0 33.4387 0 36.3177V38.8281C0 39.4754 0.524597 40 1.17188 40H13.7241C14.371 40 14.8959 39.4754 14.8959 38.8281V36.3177C14.8959 33.4393 13.3008 31.1301 11.2451 29.9072ZM3.59894 25.0208C3.59894 22.8986 5.32562 21.1719 7.44812 21.1719C9.57031 21.1719 11.297 22.8986 11.297 25.0208C11.297 27.1432 9.57031 28.8699 7.44812 28.8699C5.32562 28.8699 3.59894 27.1432 3.59894 25.0208ZM12.5522 37.6562H2.34375V36.3177C2.34375 33.4985 4.62463 31.2137 7.44781 31.2137C10.267 31.2137 12.5519 33.4946 12.5519 36.3177V37.6562H12.5522Z" fill="white"/>
<path d="M35.0625 0H19.9999C17.2729 0 15.0625 2.20642 15.0625 4.93744V27.5311C15.0625 28.4897 16.1617 29.0503 16.9375 28.4686L21.6458 24.9374H35.0625C37.7896 24.9374 39.9999 22.731 39.9999 20V4.93744C39.9999 2.21039 37.7935 0 35.0625 0V0ZM37.6562 20C37.6562 21.4337 36.4968 22.5937 35.0625 22.5937H21.2551C21.0015 22.5937 20.7549 22.6761 20.552 22.8281L17.4062 25.1874V4.93744C17.4062 3.50372 18.5656 2.34375 19.9999 2.34375H35.0625C36.4962 2.34375 37.6562 3.50311 37.6562 4.93744V20Z" fill="white"/>
<path d="M33.8073 6.27588H21.2551C20.6078 6.27588 20.0833 6.80078 20.0833 7.44775C20.0833 8.09503 20.6078 8.61963 21.2551 8.61963H33.8073C34.4543 8.61963 34.9792 8.09503 34.9792 7.44775C34.9792 6.80078 34.4546 6.27588 33.8073 6.27588Z" fill="white"/>
<path d="M33.8073 11.2969H21.2551C20.6078 11.2969 20.0833 11.8215 20.0833 12.4688C20.0833 13.1157 20.6078 13.6406 21.2551 13.6406H33.8073C34.4543 13.6406 34.9792 13.1157 34.9792 12.4688C34.9792 11.8215 34.4546 11.2969 33.8073 11.2969Z" fill="white"/>
<path d="M27.5311 16.3176H21.2551C20.6078 16.3176 20.0833 16.8422 20.0833 17.4895C20.0833 18.1368 20.6078 18.6614 21.2551 18.6614H27.5311C28.1783 18.6614 28.7029 18.1368 28.7029 17.4895C28.7029 16.8422 28.1783 16.3176 27.5311 16.3176V16.3176Z" fill="white"/>
</svg>
