<svg width="24" height="24" viewBox="0 0 12 12" fill="none" xmlns="http://www.w3.org/2000/svg">
<g clip-path="url(#clip0)">
<path d="M10.5815 4.79133L2.48781 0.184915C1.62927 -0.305223 0.753967 0.230816 0.753967 1.19473V10.8111C0.753967 11.6277 1.28562 12.0001 1.77974 12.0001C2.01244 12.0001 2.24953 11.9267 2.48502 11.7834L10.615 6.80697C11.0237 6.55591 11.2532 6.18432 11.246 5.78718C11.2392 5.38964 10.9974 5.02643 10.5815 4.79133ZM10.0702 5.91809L1.9406 10.8933C1.88591 10.9268 1.84281 10.9436 1.81327 10.952C1.80529 10.9225 1.79731 10.8769 1.79731 10.8111V1.19513C1.79731 1.09614 1.81527 1.04625 1.81527 1.03388C1.8472 1.03587 1.90308 1.05224 1.97333 1.09215L10.0658 5.69857C10.1656 5.75565 10.1951 5.80514 10.2047 5.79436C10.1995 5.80793 10.1656 5.85862 10.0702 5.91809Z" fill="white"/>
</g>
<defs>
<clipPath id="clip0">
<rect width="12" height="12" fill="white"/>
</clipPath>
</defs>
</svg>
