<svg width="28" height="28" viewBox="0 0 30 30" fill="none" xmlns="http://www.w3.org/2000/svg">
<g clip-path="url(#clip0)">
<path d="M2.19943 9.0686V12.242H3.52658L6.67072 9.06978C3.35596 9.06978 3.01728 9.07001 2.19943 9.0686V9.0686Z" fill="white"/>
<path d="M12.717 9.06744H12.7076C11.5902 9.06803 10.1939 9.06803 9.1369 9.0692L5.99921 12.2421H9.58339L12.717 9.06744Z" fill="white"/>
<path d="M18.8301 9.06274H18.8272C15.3684 9.0655 16.0709 9.06491 15.1862 9.06567L12.0502 12.242H15.6596L18.8301 9.06274Z" fill="white"/>
<path d="M24.8635 9.05865H24.2975L21.3133 9.061L18.141 12.2421H21.6936L24.8635 9.05865Z" fill="white"/>
<path d="M27.8752 9.1448C27.8676 9.14128 27.2746 9.13718 27.267 9.13367L24.1721 12.2421H28.3721V9.93523C28.3721 9.57793 28.1629 9.28226 27.8752 9.1448V9.1448Z" fill="white"/>
<path d="M2.19913 13.9999V25.6055C2.19913 26.0906 2.59229 26.4844 3.07803 26.4844H7.73389V18.6328C7.73389 17.1973 8.90167 16.0295 10.3372 16.0295H19.663C21.0985 16.0295 22.2663 17.1973 22.2663 18.6328V26.4844H27.4935C27.9786 26.4844 28.3724 26.0906 28.3724 25.6055V13.9999H2.19913Z" fill="white"/>
<path d="M27.5828 5.1569C28.0557 5.04558 28.3486 4.57272 28.2379 4.09987L27.4346 0.677412C27.324 0.206846 26.8522 -0.0885252 26.3781 0.0229201C25.6595 0.191611 3.45515 5.40394 2.30607 5.6737C1.83322 5.78444 1.54025 6.2573 1.65099 6.73015L1.79806 7.3571L18.4322 7.30495L27.5828 5.1569Z" fill="white"/>
<path d="M19.663 17.7874H10.3372C9.87024 17.7874 9.49173 18.1659 9.49173 18.6329V29.1545C9.49173 29.6215 9.87024 30 10.3372 30H19.663C20.1294 30 20.5085 29.6215 20.5085 29.1545V18.6329C20.5085 18.1659 20.1294 17.7874 19.663 17.7874V17.7874ZM16.9402 25.4625H13.0601C12.5743 25.4625 12.1812 25.0687 12.1812 24.5836C12.1812 24.0984 12.5743 23.7047 13.0601 23.7047H16.9402C17.4253 23.7047 17.8191 24.0984 17.8191 24.5836C17.8191 25.0687 17.4253 25.4625 16.9402 25.4625ZM16.9402 21.9469H13.0601C12.5743 21.9469 12.1812 21.5532 12.1812 21.068C12.1812 20.5829 12.5743 20.1891 13.0601 20.1891H16.9402C17.4253 20.1891 17.8191 20.5829 17.8191 21.068C17.8191 21.5532 17.4253 21.9469 16.9402 21.9469Z" fill="white"/>
</g>
<defs>
<clipPath id="clip0">
<rect width="28" height="28" fill="white"/>
</clipPath>
</defs>
</svg>
