<svg width="26" height="26" viewBox="0 0 30 30" fill="none" xmlns="http://www.w3.org/2000/svg">
<path d="M15 0C10.6383 0 7.08984 3.5485 7.08984 7.91016C7.08984 12.2718 10.6383 15.8203 15 15.8203C19.3617 15.8203 22.9102 12.2718 22.9102 7.91016C22.9102 3.5485 19.3617 0 15 0Z" fill="white"/>
<path d="M24.8418 20.988C22.6761 18.7891 19.8052 17.5781 16.7578 17.5781H13.2422C10.1948 17.5781 7.32387 18.7891 5.15824 20.988C3.00322 23.1761 1.81641 26.0644 1.81641 29.1211C1.81641 29.6065 2.20992 30 2.69531 30H27.3047C27.7901 30 28.1836 29.6065 28.1836 29.1211C28.1836 26.0644 26.9968 23.1761 24.8418 20.988Z" fill="white"/>
</svg>
