<svg width="25" height="25" viewBox="0 0 30 30" fill="none" xmlns="http://www.w3.org/2000/svg">
<path d="M20.8603 0.9375H16.7577L9.72617 6.21094H13.8287L20.8603 0.9375Z" fill="white"/>
<path d="M27.9499 0.9375H23.7889L16.7574 6.21094H20.8599L27.9499 0.9375Z" fill="white"/>
<path d="M23.7886 6.21091H30V1.81638C30 1.74859 29.976 1.6887 29.9615 1.62531L23.7886 6.21091Z" fill="white"/>
<path d="M2.63629 6.21094H6.79744L13.829 0.9375H9.72643L2.63629 6.21094Z" fill="white"/>
<path d="M0 28.1836C0 28.6694 0.393105 29.0625 0.878906 29.0625H29.1211C29.6069 29.0625 30 28.6694 30 28.1836V7.96875H0V28.1836ZM10.6055 12.3633C10.6055 12.0466 10.7754 11.7547 11.051 11.5985C11.3265 11.4423 11.6647 11.4466 11.9367 11.6096L20.7258 16.8831C20.9902 17.0419 21.1523 17.3277 21.1523 17.6367C21.1523 17.9456 20.9901 18.2314 20.7258 18.3902L11.9367 23.6637C11.6645 23.8267 11.3262 23.8309 11.051 23.6748C10.7754 23.5187 10.6055 23.2269 10.6055 22.9102V12.3633Z" fill="white"/>
<path d="M0.878906 0.9375C0.393105 0.9375 0 1.33061 0 1.81641V5.99162L6.79781 0.9375H0.878906Z" fill="white"/>
<path d="M12.3633 13.916V21.3575L18.5654 17.6367L12.3633 13.916Z" fill="white"/>
</svg>
